<svg width="178" height="179" viewBox="0 0 178 179" fill="none" xmlns="http://www.w3.org/2000/svg">
<rect width="178" height="179" rx="89" fill="white"/>
<g filter="url(#filter0_d_117_461)">
<path d="M83.8807 136H48.0625V42.9091H83.517C93.0928 42.9091 101.366 44.7727 108.335 48.5C115.335 52.197 120.729 57.5303 124.517 64.5C128.335 71.4394 130.244 79.7576 130.244 89.4545C130.244 99.1515 128.35 107.485 124.562 114.455C120.775 121.394 115.411 126.727 108.472 130.455C101.532 134.152 93.3352 136 83.8807 136ZM73.3352 114.545H82.9716C87.5777 114.545 91.5019 113.803 94.7443 112.318C98.017 110.833 100.502 108.273 102.199 104.636C103.926 101 104.79 95.9394 104.79 89.4545C104.79 82.9697 103.911 77.9091 102.153 74.2727C100.426 70.6364 97.8807 68.0758 94.517 66.5909C91.1837 65.1061 87.0928 64.3636 82.2443 64.3636H73.3352V114.545Z" fill="url(#paint0_linear_117_461)"/>
</g>
<defs>
<filter id="filter0_d_117_461" x="48.0625" y="42.9092" width="84.1819" height="95.0908" filterUnits="userSpaceOnUse" color-interpolation-filters="sRGB">
<feFlood flood-opacity="0" result="BackgroundImageFix"/>
<feColorMatrix in="SourceAlpha" type="matrix" values="0 0 0 0 0 0 0 0 0 0 0 0 0 0 0 0 0 0 127 0" result="hardAlpha"/>
<feOffset dx="1" dy="1"/>
<feGaussianBlur stdDeviation="0.5"/>
<feComposite in2="hardAlpha" operator="out"/>
<feColorMatrix type="matrix" values="0 0 0 0 0 0 0 0 0 0 0 0 0 0 0 0 0 0 0.25 0"/>
<feBlend mode="normal" in2="BackgroundImageFix" result="effect1_dropShadow_117_461"/>
<feBlend mode="normal" in="SourceGraphic" in2="effect1_dropShadow_117_461" result="shape"/>
</filter>
<linearGradient id="paint0_linear_117_461" x1="12.1689" y1="43.1518" x2="178.646" y2="61.2737" gradientUnits="userSpaceOnUse">
<stop stop-color="#23FF95"/>
<stop offset="1" stop-color="#0FB37C"/>
</linearGradient>
</defs>
</svg>
